<svg xmlns="http://www.w3.org/2000/svg" viewBox="0 0 425.66 65.89"><path d="M14.33,28.37c5.11,0,9.07,2.16,10.73,4V26.71c0-6.26-4.11-9.64-10.23-9.64A22.08,22.08,0,0,0,3.31,20.52L1.8,17.71a25.2,25.2,0,0,1,13.25-4c9.29,0,13.61,5.4,13.61,13.18V52.06H25.71l-.65-3.53C23,50.84,19.73,53,14.33,53,5.83,53,0,47.52,0,40.61S6.05,28.37,14.33,28.37Zm.22,21.31c6.33,0,10.72-3.88,10.72-9.07S21,31.68,14.47,31.68s-10.8,3.89-10.8,8.93S7.85,49.68,14.55,49.68Z" fill="#424242"/><path d="M37,0h3.6V52.06H37Z" fill="#424242"/><path d="M59.76,52.06l-15-37.37h3.89l13,33.05,13-33.05h3.89l-15,37.37Z" fill="#424242"/><path d="M84.46,1.8a2.92,2.92,0,0,1,3,3,3,3,0,0,1-5.91,0A2.93,2.93,0,0,1,84.46,1.8Zm-1.8,12.89h3.6V52.06h-3.6Z" fill="#424242"/><path d="M123.91,27.79V52.06h-3.6v-24c0-6.84-4.32-11-10.15-11-6.55,0-11.23,4.89-11.23,12.16V52.06h-3.6V14.69h3.6v5.9a13.23,13.23,0,0,1,11.66-6.84C118.3,13.75,123.91,19.08,123.91,27.79Z" fill="#424242"/><path d="M133.85,41.62a10.25,10.25,0,0,0,9,4.9c3.31,0,5.76-1.66,5.76-4.69,0-7.2-18.29-4.6-18.29-17.64,0-6.62,5.62-10.65,12.89-10.65,7,0,10.8,4.1,12.24,7l-5.4,3.6A8.1,8.1,0,0,0,142.78,20c-2.88,0-5,1.51-5,4.1,0,7.2,18.36,4.18,18.36,17.43,0,7-5.91,11.52-13.61,11.52S130.82,48.89,129,45.51Z" fill="#424242"/><path d="M178.13,13.54c11.59,0,19.94,8.42,19.94,19.73S189.58,53,178.13,53s-19.88-8.28-19.88-19.66S166.82,13.54,178.13,13.54Zm0,32.47c7,0,12.1-5.4,12.1-12.74s-5.12-12.75-12.1-12.75-12,5.47-12,12.82S171.14,46,178.13,46Z" fill="#424242"/><path d="M212.76,52.06l-14-37.59h8.35l10.08,29.09,10-29.09h8.21L221.62,52.06Z" fill="#424242"/><path d="M254.59,13.54c11.38,0,18.07,7.85,18.07,19.65a18.16,18.16,0,0,1-.07,2h-28.3c.15,6.69,5,11,11.67,11a12.26,12.26,0,0,0,10.37-5.26l5.18,3.89c-1.8,3.09-6.77,8.21-15.7,8.21-11.73,0-19.51-8.21-19.51-19.59C236.3,21.75,244.29,13.54,254.59,13.54Zm10.08,16.2c-.29-6.19-4.61-9.65-10-9.65s-9.57,3.74-10.08,9.65Z" fill="#424242"/><path d="M295.7,21.46c-8.21,0-10.58,6.26-10.58,14.4v16.2h-7.85V14.47H285v5.91a11.21,11.21,0,0,1,10.73-6.84Z" fill="#424242"/><path d="M314.42,13.54c11.38,0,18.08,7.85,18.08,19.65a15.9,15.9,0,0,1-.08,2H304.13c.14,6.69,5,11,11.66,11a12.26,12.26,0,0,0,10.37-5.26l5.18,3.89c-1.8,3.09-6.76,8.21-15.69,8.21-11.74,0-19.52-8.21-19.52-19.59C296.13,21.75,304.13,13.54,314.42,13.54Zm10.08,16.2c-.28-6.19-4.6-9.65-10-9.65s-9.57,3.74-10.08,9.65Z" fill="#424242"/><path d="M341,.29a4.86,4.86,0,0,1,4.9,4.89,4.9,4.9,0,1,1-9.8,0A4.86,4.86,0,0,1,341,.29ZM337.1,14.47H345V52.06H337.1Z" fill="#424242"/><path d="M356.9,56.24a23.74,23.74,0,0,0,11,2.88c6.26,0,11.81-2.31,11.81-9.44V47.16a14.55,14.55,0,0,1-12,5.84c-10.8,0-18-8.14-18-19.66s7.49-19.8,18.15-19.8a14.91,14.91,0,0,1,12.24,6v-5h7.41V47.09c0,14.12-8.57,18.8-19.51,18.8a28.83,28.83,0,0,1-13.61-3.6Zm11.81-35.72c-6.48,0-11.16,5.19-11.16,12.75S362.37,46,368.78,46c6.77,0,11.16-5.33,11.16-12.74C379.94,25.56,375.19,20.52,368.71,20.52Z" fill="#424242"/><path d="M425.66,29.45V52.06h-7.77V28.8c0-5.18-3.24-8.21-7.57-8.21-5,0-8.2,3.68-8.2,8.79V52.06h-7.85V14.47H402v4.9a12.26,12.26,0,0,1,10.59-5.83C422.28,13.54,425.66,21.24,425.66,29.45Z" fill="#424242"/></svg>